<?xml version="1.0" encoding="utf-8"?>
<!-- Generator: Adobe Illustrator 18.0.0, SVG Export Plug-In . SVG Version: 6.00 Build 0)  -->
<!DOCTYPE svg PUBLIC "-//W3C//DTD SVG 1.1//EN" "http://www.w3.org/Graphics/SVG/1.1/DTD/svg11.dtd">
<svg version="1.1" id="图层_1" xmlns="http://www.w3.org/2000/svg" xmlns:xlink="http://www.w3.org/1999/xlink" x="0px" y="0px"
	 viewBox="176.5 367 259 58" enable-background="new 176.5 367 259 58" xml:space="preserve">
<g>
	<g>
		<path fill="#FFFFFF" d="M237.3,398c0.7-6.3,3.6-8.6,10.2-8.6c6.4,0,10.1,1.7,10.1,7.4v14.1c0,1.9,0,3,1.4,3c0.6,0,1.3-0.2,1.9-0.4
			v2c-0.6,0.3-1.4,0.4-2.4,0.4c-2.7,0-2.7-2.2-2.7-5.5h-0.1c-2.5,5.2-7.6,5.8-10.5,5.8c-1.9,0-9,0-9-7.7c0-5.2,3.8-6.9,8.3-7.2
			l7.7-0.6c2.3-0.2,3.4-0.5,3.4-3.6c0-3.4-1.7-5.7-8.2-5.7c-5.8,0-7.6,2.1-8.2,6.6H237.3L237.3,398z M255.7,401.3L255.7,401.3
			c-0.6,0.6-1.7,1.2-3.6,1.3l-7.5,0.6c-3.7,0.3-6.3,1.5-6.3,5.3c0,5.1,4.5,5.7,7.2,5.7c4.4,0,10.2-2.3,10.2-8.3V401.3L255.7,401.3z
			 M282.3,397.6c-0.3-4.2-2.6-6.2-8.3-6.2c-5.4,0-7.2,2.4-7.2,5c0,2.8,1.8,3.9,4.4,4.3l7,1.1c4.1,0.6,6.9,2.3,6.9,6.9
			c0,6.9-6.8,7.5-10.5,7.5c-6,0-10.4-2.3-10.8-8.6h2c0.3,2.6,0.7,6.7,9.3,6.7c5.8,0,8.1-2,8.1-5.6c0-2.9-1.8-4.2-4.4-4.6l-7.8-1.2
			c-2.7-0.4-6.2-1.9-6.2-6.3c0-2.9,1.7-7.2,9.2-7.2c8.2,0,10,4.2,10.2,8.2L282.3,397.6L282.3,397.6z M287.6,390.2h2.3l9.9,22.7
			l9.1-22.7h2.3l-12.1,29.6c-1.1,2.7-2.3,4.6-5.7,4.6h-2.8v-2h2.4c2.6,0,3.1-0.6,4.8-4.5l1.1-2.6L287.6,390.2L287.6,390.2z"/>
	</g>
	<g>
		<path fill="#FFFFFF" d="M316.4,415.4V380h7.4v29h17.5v6.4H316.4z M344.9,386.1v-6.4h6.8v6.4H344.9L344.9,386.1z M344.9,415.4
			v-26.2h6.8v26.2H344.9L344.9,415.4z M380.5,415.4h-6.9v-16c0-1.9-0.4-3.2-1.1-4c-0.7-0.8-1.8-1.2-3.3-1.2c-1.8,0-3.2,0.6-4.1,1.8
			c-0.9,1.2-1.4,2.9-1.4,5.1v14.2h-6.8v-26.2h6.6v3.9c0.9-1.6,2-2.7,3.2-3.5s2.9-1.2,4.8-1.2c2.8,0,5,0.8,6.6,2.4
			c1.6,1.6,2.4,3.9,2.4,6.9L380.5,415.4L380.5,415.4z M385.3,415.4V380h6.8v19.2l8.6-10.1h8.5l-9.2,10.1l9.5,16.1h-8.3l-6.2-11.2
			l-2.9,2.9v8.3L385.3,415.4L385.3,415.4z M426.1,397.2c-0.1-0.9-0.3-1.5-0.6-2c-0.3-0.6-0.8-0.9-1.4-1.2c-0.8-0.3-1.6-0.5-2.5-0.5
			c-1.6,0-2.6,0.3-3.3,0.8c-0.6,0.5-1,1.1-1,1.7c0,0.3,0.1,0.7,0.3,0.9c0.2,0.3,0.4,0.6,0.9,0.8c0.4,0.3,1.2,0.5,2.3,0.8l4.8,1.2
			c1.6,0.4,2.6,0.7,3,0.9c1,0.3,1.8,0.7,2.5,1.2s1.2,0.9,1.6,1.4c0.4,0.5,0.7,1.1,0.9,1.8s0.3,1.4,0.3,2.2c0,1.4-0.3,2.7-0.8,3.9
			c-0.6,1.2-1.3,2.1-2.3,2.9c-1,0.8-2.3,1.3-3.7,1.7c-1.5,0.4-3.2,0.6-5.2,0.6c-2,0-3.8-0.2-5.3-0.6c-1.5-0.4-2.7-1.1-3.7-1.9
			c-0.9-0.8-1.6-1.7-2.1-2.8c-0.5-1.1-0.8-2.3-1-3.9h7.1c0,0.9,0.1,1.5,0.4,2c0.4,0.7,1,1.2,1.7,1.5c0.8,0.3,1.8,0.5,3,0.5
			c1.8,0,3.1-0.3,3.9-0.9c0.6-0.5,0.9-1,0.9-1.8c0-0.6-0.2-1-0.7-1.4c-0.4-0.4-1.5-0.8-3.3-1.2c-3.9-0.9-6.4-1.6-7.5-2
			c-1.6-0.6-2.7-1.5-3.5-2.6c-0.8-1.1-1.2-2.4-1.2-4s0.4-3.1,1.3-4.4c0.9-1.4,2.1-2.4,3.7-3.2c1.7-0.7,3.7-1.1,6.2-1.1
			c1.4,0,2.8,0.1,4,0.4c1.3,0.3,2.3,0.7,3.2,1.2c0.9,0.6,1.6,1.2,2.1,1.9c0.6,0.7,1,1.4,1.2,2.2c0.3,0.8,0.5,1.7,0.6,3L426.1,397.2
			L426.1,397.2z"/>
	</g>
	<path fill="#1886C9" d="M229.3,416c0,3.1-2.5,5.6-5.6,5.6h-40c-3.1,0-5.6-2.5-5.6-5.6v-40c0-3.1,2.5-5.6,5.6-5.6h40
		c3.1,0,5.6,2.5,5.6,5.6V416z"/>
	<path opacity="0.5" fill="#389FDA" enable-background="new    " d="M229.3,416c0,3.1-2.5,5.6-5.6,5.6h-40c-3.1,0-5.6-2.5-5.6-5.6
		v-40c0-3.1,2.5-5.6,5.6-5.6h40c3.1,0,5.6,2.5,5.6,5.6V416z"/>
	<path fill="#FFFFFF" d="M190.2,413.6v-35.3h26.2v6.1h-18.9v7.8h17.3v6.1h-17.3v9.2h19.7v6.1L190.2,413.6L190.2,413.6z"/>
</g>
</svg>
