<svg xmlns="http://www.w3.org/2000/svg" viewBox="0 0 258.667 58" enable-background="new 0 0 258.667 58"><g fill="#555"><path d="M61.163 30.09c.726-6.3 3.543-8.5 10.16-8.5 6.362 0 10.034 1.71 10.034 7.327v14.018c0 1.856 0 2.98 1.45 2.98.642 0 1.282-.148 1.922-.392v1.954c-.6.244-1.41.39-2.392.39-2.69 0-2.69-2.148-2.69-5.47h-.086c-2.433 5.13-7.557 5.764-10.417 5.764-1.878 0-8.966 0-8.966-7.618 0-5.13 3.8-6.887 8.24-7.18l7.64-.586c2.264-.195 3.332-.488 3.332-3.566 0-3.37-1.665-5.666-8.112-5.666-5.764 0-7.557 2.052-8.155 6.545h-1.962zm18.23 3.32h-.085c-.47.587-1.623 1.173-3.5 1.32l-7.388.585c-3.67.293-6.276 1.466-6.276 5.227 0 5.08 4.483 5.666 7.13 5.666 4.355 0 10.12-2.247 10.12-8.206v-4.59zM105.737 29.7c-.3-4.153-2.605-6.156-8.283-6.156-5.38 0-7.13 2.393-7.13 4.982 0 2.735 1.793 3.86 4.397 4.25l6.96 1.074c4.1.635 6.875 2.344 6.875 6.838 0 6.79-6.746 7.473-10.46 7.473-6.02 0-10.376-2.343-10.675-8.595h1.964c.256 2.588.726 6.643 9.222 6.643 5.764 0 7.984-1.954 7.984-5.52 0-2.88-1.836-4.15-4.398-4.54l-7.685-1.173c-2.69-.39-6.148-1.856-6.148-6.3 0-2.834 1.75-7.083 9.178-7.083 8.112 0 9.906 4.2 10.16 8.108h-1.96zM111.032 22.372h2.22l9.82 22.517 9.008-22.518h2.22l-12.04 29.404c-1.11 2.686-2.22 4.59-5.636 4.59h-2.732v-1.953h2.348c2.52 0 3.074-.635 4.74-4.493l1.11-2.54-11.058-25.008z"/></g><g fill="#555"><path d="M139.63 47.38V12.32h7.323v28.74h17.434v6.32H139.63zM167.978 18.26v-6.345h6.773v6.344h-6.772zm0 29.12V21.384h6.773V47.38h-6.772zM203.29 47.38h-6.846V31.543c0-1.844-.37-3.164-1.11-3.96-.738-.794-1.83-1.192-3.278-1.192-1.797 0-3.148.61-4.054 1.826-.906 1.216-1.36 2.913-1.36 5.092V47.38h-6.773V21.384h6.558v3.84c.89-1.543 1.956-2.696 3.196-3.46 1.24-.762 2.814-1.144 4.723-1.144 2.782 0 4.968.787 6.56 2.36 1.59 1.575 2.384 3.864 2.384 6.87v17.53zM208.073 47.38V12.273h6.773v19.08l8.49-9.97h8.42l-9.11 9.97 9.444 16.027h-8.204l-6.2-11.138-2.84 2.934v8.204h-6.773zM248.678 29.254c-.128-.874-.326-1.518-.596-1.932-.35-.54-.81-.93-1.383-1.168-.748-.302-1.575-.454-2.48-.454-1.544 0-2.636.247-3.28.74-.644.492-.966 1.057-.966 1.692 0 .35.08.664.238.943.16.278.437.53.835.75.413.24 1.168.502 2.265.787l4.746 1.17c1.59.413 2.584.69 2.98.834.987.334 1.81.724 2.47 1.17.66.445 1.184.926 1.574 1.442.39.517.692 1.11.906 1.777.215.668.322 1.4.322 2.195 0 1.415-.266 2.703-.8 3.863-.532 1.16-1.295 2.11-2.288 2.85-.994.74-2.227 1.3-3.697 1.68-1.47.383-3.192.574-5.163.574-2.02 0-3.78-.215-5.283-.644-1.504-.43-2.72-1.053-3.65-1.872-.93-.818-1.626-1.73-2.087-2.73-.462-1.002-.787-2.282-.978-3.84h7.036c0 .827.136 1.487.406 1.98.382.684.966 1.193 1.753 1.527.786.334 1.776.5 2.968.5 1.765 0 3.053-.293 3.864-.88.588-.446.882-1.034.882-1.766 0-.555-.22-1.032-.656-1.43-.437-.397-1.53-.803-3.28-1.216-3.862-.89-6.35-1.558-7.464-2.003-1.56-.634-2.72-1.493-3.482-2.575-.763-1.08-1.145-2.4-1.145-3.96 0-1.59.417-3.06 1.252-4.41.834-1.352 2.074-2.393 3.72-3.125 1.646-.73 3.685-1.097 6.117-1.097 1.4 0 2.73.14 3.995.417 1.264.278 2.32.688 3.172 1.228.85.54 1.55 1.165 2.1 1.872.548.707.953 1.43 1.215 2.17.26.74.464 1.72.607 2.945h-6.75z"/></g><path d="M53.042 47.936c0 3.058-2.48 5.538-5.537 5.538H7.815c-3.058 0-5.538-2.48-5.538-5.538V8.246c0-3.058 2.48-5.538 5.538-5.538h39.69c3.06 0 5.537 2.48 5.537 5.538v39.69z" fill="#1886C9"/><path d="M53.042 47.936c0 3.058-2.48 5.538-5.537 5.538H7.815c-3.058 0-5.538-2.48-5.538-5.538V8.246c0-3.058 2.48-5.538 5.538-5.538h39.69c3.06 0 5.537 2.48 5.537 5.538v39.69z" opacity=".5" fill="#389FDA"/><path d="M14.233 45.62V10.562h26.02v6.034H21.555v7.775H38.75v6.06H21.555v9.134h19.533v6.057H14.233z" fill="#fff"/></svg>